<?xml version="1.0" encoding="UTF-8"?>
<svg id="Layer_1" data-name="Layer 1" xmlns="http://www.w3.org/2000/svg" version="1.1" viewBox="0 0 200 33.85">
  <defs>
    <style>
      .cls-1 {
        fill: #7B2EDA;
        stroke-width: 0px;
      }
    </style>
  </defs>
  <g>
    <path class="cls-1" d="M20.37,4.56c4.73,0,8.56,3.84,8.56,8.56s-3.84,8.56-8.56,8.56-8.56-3.84-8.56-8.56,3.84-8.56,8.56-8.56ZM20.37,0C13.12,0,7.25,5.87,7.25,13.12s5.87,13.12,13.12,13.12,13.12-5.87,13.12-13.12S27.61,0,20.37,0Z"/>
    <path class="cls-1" d="M20.37,33.85C9.14,33.85,0,24.72,0,13.49h3.65c0,9.22,7.5,16.72,16.72,16.72s16.72-7.5,16.72-16.72h3.65c0,11.23-9.14,20.37-20.37,20.37Z"/>
  </g>
  <g>
    <path class="cls-1" d="M50.97,3.97h4.45v11.17h12.41V3.97h4.53v26.41h-4.53v-11.51h-12.41v11.51h-4.45V3.97Z"/>
    <path class="cls-1" d="M86.44,30.64c-1.84,0-3.47-.4-4.89-1.19-1.42-.79-2.53-1.91-3.34-3.36-.8-1.45-1.21-3.15-1.21-5.11s.41-3.71,1.24-5.17,1.97-2.58,3.41-3.38c1.45-.79,3.08-1.19,4.89-1.19s3.44.4,4.89,1.19c1.45.79,2.6,1.91,3.45,3.36.85,1.45,1.28,3.15,1.28,5.11s-.43,3.71-1.3,5.17c-.87,1.46-2.04,2.58-3.51,3.38s-3.11,1.19-4.92,1.19ZM86.4,26.83c.88,0,1.72-.21,2.51-.64.79-.43,1.44-1.08,1.94-1.94.5-.87.75-1.98.75-3.34s-.24-2.4-.72-3.26c-.48-.87-1.11-1.52-1.89-1.94-.78-.43-1.62-.64-2.53-.64s-1.7.21-2.45.64c-.75.43-1.35,1.08-1.79,1.94s-.66,1.98-.66,3.34.21,2.4.64,3.26c.43.87,1.01,1.52,1.75,1.94.74.43,1.55.64,2.43.64Z"/>
    <path class="cls-1" d="M100.55,3.21h4.26v27.16h-4.26V3.21Z"/>
    <path class="cls-1" d="M112.92,8.65c-.78,0-1.43-.26-1.96-.79s-.79-1.16-.79-1.89c0-.78.26-1.43.79-1.96.53-.53,1.18-.79,1.96-.79s1.4.26,1.92.79c.53.53.79,1.18.79,1.96,0,.73-.26,1.36-.79,1.89s-1.17.79-1.92.79ZM110.77,11.51h4.26v18.86h-4.26V11.51Z"/>
    <path class="cls-1" d="M134.92,14.31l-.49.11V3.21h4.3v27.16h-3.89l-.3-2.34c-.65.73-1.48,1.35-2.49,1.85-1.01.5-2.2.75-3.58.75-1.69,0-3.16-.4-4.43-1.21-1.27-.8-2.26-1.94-2.96-3.4-.7-1.46-1.06-3.16-1.06-5.09s.35-3.63,1.06-5.09c.7-1.46,1.69-2.59,2.96-3.4,1.27-.8,2.75-1.21,4.43-1.21,1.51,0,2.81.3,3.91.89,1.09.59,1.94,1.31,2.55,2.17ZM124.58,20.95c0,1.74.45,3.14,1.36,4.23.91,1.08,2.09,1.62,3.55,1.62.88,0,1.7-.23,2.45-.68.75-.45,1.36-1.11,1.81-1.98.45-.87.68-1.93.68-3.19s-.23-2.32-.68-3.19c-.45-.87-1.06-1.53-1.81-1.98-.75-.45-1.57-.68-2.45-.68-1.46,0-2.64.54-3.55,1.62-.91,1.08-1.36,2.49-1.36,4.23Z"/>
    <path class="cls-1" d="M155.33,30.38l-.38-2.3c-.6.81-1.32,1.42-2.15,1.85-.83.43-1.94.64-3.32.64-1.31,0-2.44-.22-3.4-.66-.96-.44-1.69-1.06-2.21-1.85s-.77-1.72-.77-2.77c0-1.58.58-2.91,1.74-3.98,1.16-1.07,2.88-1.72,5.17-1.94l4.94-.6v-1.43c0-.6-.26-1.15-.79-1.64-.53-.49-1.37-.74-2.53-.74-1.01,0-1.88.25-2.62.74-.74.49-1.24,1.23-1.49,2.21l-3.7-1.36c.48-1.66,1.43-2.96,2.85-3.89,1.42-.93,3.15-1.4,5.19-1.4,2.44,0,4.28.62,5.51,1.85,1.23,1.23,1.85,2.8,1.85,4.72v12.56h-3.89ZM154.95,22.08l-4.53.6c-.96.1-1.67.37-2.15.79-.48.43-.72.94-.72,1.55s.23,1.08.7,1.49c.46.41,1.1.62,1.91.62,1.06,0,1.94-.18,2.66-.55.72-.36,1.25-.91,1.6-1.62.35-.72.53-1.59.53-2.62v-.26Z"/>
    <path class="cls-1" d="M178.23,14.83l-9.43,11.81h9.51v3.73h-14.83v-3.36l9.43-11.77h-9.39v-3.74h14.71v3.32Z"/>
    <path class="cls-1" d="M191.25,30.64c-1.89,0-3.54-.41-4.96-1.24s-2.53-1.99-3.32-3.47c-.79-1.48-1.19-3.19-1.19-5.13,0-1.84.39-3.47,1.17-4.9.78-1.43,1.86-2.57,3.24-3.4,1.38-.83,2.94-1.24,4.68-1.24s3.4.39,4.75,1.17c1.36.78,2.43,1.87,3.21,3.26s1.17,3.01,1.17,4.85c0,.3-.02.62-.06.96-.04.34-.08.7-.13,1.08h-13.39c.1.91.37,1.67.81,2.3.44.63,1,1.12,1.68,1.47.68.35,1.47.53,2.38.53,1.03,0,1.97-.22,2.81-.66.84-.44,1.43-1,1.75-1.68l3.74,1.24c-.76,1.51-1.87,2.7-3.34,3.57-1.47.87-3.14,1.3-5,1.3ZM195.28,19.1c0-.78-.2-1.48-.6-2.11-.4-.63-.93-1.13-1.59-1.49-.65-.36-1.38-.55-2.19-.55-.73,0-1.4.18-2.02.53s-1.14.84-1.57,1.45c-.43.62-.72,1.34-.87,2.17h8.83Z"/>
  </g>
</svg>